<?xml version="1.0" standalone="no"?>
<!DOCTYPE svg PUBLIC "-//W3C//DTD SVG 20010904//EN"
 "http://www.w3.org/TR/2001/REC-SVG-20010904/DTD/svg10.dtd">
<svg version="1.0" xmlns="http://www.w3.org/2000/svg"
 width="2500.000000pt" height="2500.000000pt" viewBox="0 0 2500.000000 2500.000000"
 preserveAspectRatio="xMidYMid meet">
<metadata>
Created by potrace 1.14, written by Peter Selinger 2001-2017
</metadata>
<g transform="translate(0.000000,2500.000000) scale(0.100000,-0.100000)"
fill="#000000" stroke="none">
<path d="M1010 12500 l0 -11490 11490 0 11490 0 0 11490 0 11490 -11490 0
-11490 0 0 -11490z m22480 0 l0 -10990 -10990 0 -10990 0 0 1408 c0 774 3
2801 7 4505 5 2640 8 3097 20 3097 11 0 13 10 8 43 -36 268 -35 103 -35 6632
l0 6295 10990 0 10990 0 0 -10990z"/>
<path d="M4660 21035 c0 -8 -7 -15 -15 -15 -13 0 -15 -93 -15 -780 0 -687 2
-780 15 -780 9 0 15 -9 15 -23 0 -12 9 -29 20 -37 11 -8 20 -25 20 -37 0 -13
5 -23 11 -23 17 0 39 -27 39 -49 0 -12 6 -21 15 -21 8 0 15 -5 15 -11 0 -14
25 -39 39 -39 6 0 11 -9 11 -21 0 -22 22 -49 39 -49 6 0 11 -7 11 -15 0 -8 5
-15 10 -15 6 0 10 -9 10 -21 0 -22 22 -49 39 -49 6 0 11 -9 11 -21 0 -22 22
-49 39 -49 6 0 11 -7 11 -15 0 -8 5 -15 10 -15 6 0 10 -11 10 -25 0 -14 5 -25
11 -25 16 0 39 -27 39 -46 0 -9 11 -27 25 -40 14 -13 25 -30 25 -39 0 -8 5
-15 10 -15 6 0 10 -7 10 -15 0 -8 7 -15 15 -15 9 0 15 -9 15 -21 0 -22 22 -49
39 -49 6 0 11 -5 11 -11 0 -14 25 -39 39 -39 6 0 11 -10 11 -23 0 -12 9 -29
20 -37 11 -8 20 -25 20 -37 0 -14 6 -23 15 -23 8 0 15 -5 15 -11 0 -14 25 -39
39 -39 14 0 14 -23 0 -37 -17 -17 -1 -37 17 -22 10 8 14 8 14 0 0 -6 7 -11 15
-11 9 0 15 -9 15 -25 0 -14 5 -25 10 -25 6 0 10 -5 10 -11 0 -14 25 -39 39
-39 6 0 11 -9 11 -21 0 -22 22 -49 39 -49 6 0 11 -11 11 -25 0 -14 5 -25 10
-25 6 0 10 -7 10 -15 0 -8 7 -15 15 -15 9 0 15 -9 15 -21 0 -22 22 -49 39 -49
6 0 11 -7 11 -15 0 -8 5 -15 10 -15 6 0 10 -9 10 -20 0 -11 5 -20 10 -20 6 0
10 -7 10 -15 0 -8 7 -15 15 -15 9 0 15 -9 15 -21 0 -22 22 -49 39 -49 6 0 11
-7 11 -15 0 -8 5 -15 10 -15 6 0 10 -7 10 -16 0 -18 53 -74 70 -74 5 0 10 -11
10 -25 0 -14 5 -25 10 -25 6 0 10 -7 10 -15 0 -8 5 -15 10 -15 6 0 10 -8 10
-19 0 -10 11 -27 25 -37 14 -10 25 -29 25 -41 0 -13 5 -23 11 -23 14 0 39 -25
39 -39 0 -6 7 -11 15 -11 9 0 15 -9 15 -23 0 -12 9 -29 20 -37 11 -8 20 -25
20 -37 0 -13 5 -23 11 -23 17 0 39 -27 39 -49 0 -12 6 -21 15 -21 8 0 15 -5
15 -11 0 -14 25 -39 39 -39 6 0 11 -9 11 -21 0 -22 22 -49 39 -49 6 0 11 -7
11 -15 0 -8 5 -15 10 -15 6 0 10 -11 10 -25 0 -16 6 -25 16 -25 13 0 14 -3 5
-13 -14 -18 -2 -30 16 -16 10 9 13 6 13 -15 0 -14 5 -26 11 -26 15 0 39 -26
39 -43 0 -8 7 -20 15 -27 8 -7 15 -18 15 -26 0 -7 9 -16 20 -19 12 -4 20 -15
20 -27 0 -11 11 -31 25 -44 14 -13 25 -28 25 -34 0 -7 18 -29 40 -50 26 -25
38 -44 34 -54 -4 -11 -1 -16 10 -16 9 0 16 -7 16 -15 0 -8 5 -15 10 -15 6 0
10 -11 10 -25 0 -14 4 -25 10 -25 17 0 60 -50 60 -70 0 -11 7 -20 15 -20 8 0
15 -6 15 -14 0 -8 6 -17 13 -20 10 -5 10 -7 0 -12 -7 -3 -13 -17 -13 -30 0
-20 5 -24 30 -24 32 0 70 -30 70 -55 0 -8 5 -15 10 -15 6 0 10 -7 10 -15 0 -8
6 -15 13 -15 7 0 19 -16 27 -35 8 -19 19 -35 25 -35 6 0 17 -16 25 -35 8 -19
17 -35 22 -35 4 0 8 -11 8 -25 0 -20 5 -25 24 -25 17 0 26 -7 30 -25 4 -14 11
-25 16 -25 6 0 10 -7 10 -15 0 -8 5 -15 10 -15 6 0 10 -9 10 -21 0 -22 22 -49
39 -49 6 0 11 -9 11 -21 0 -22 22 -49 39 -49 6 0 11 -11 11 -25 0 -14 5 -25
10 -25 6 0 10 -7 10 -15 0 -8 5 -15 11 -15 17 0 39 -27 39 -49 0 -12 5 -21 11
-21 14 0 39 -25 39 -39 0 -6 5 -11 10 -11 6 0 10 -11 10 -25 0 -14 5 -25 11
-25 17 0 39 -27 39 -49 0 -12 4 -21 10 -21 15 0 50 -33 50 -47 0 -7 5 -13 10
-13 6 0 10 -8 10 -18 0 -10 9 -24 20 -32 11 -8 20 -25 20 -37 0 -14 6 -23 15
-23 9 0 15 -9 15 -21 0 -22 22 -49 39 -49 6 0 11 -7 11 -15 0 -8 5 -15 10 -15
6 0 10 -11 10 -25 0 -14 5 -25 11 -25 13 0 39 -25 39 -38 0 -5 10 -14 23 -18
12 -5 -677 -10 -1585 -11 l-1608 -3 0 -5175 c0 -4882 1 -5176 17 -5195 17 -20
27 -20 1490 -20 l1473 0 0 23 c0 12 0 1778 0 3925 l0 3902 2109 0 c1862 0
2110 2 2121 15 10 12 42 15 171 15 94 0 160 4 164 10 3 6 41 10 83 10 49 0 88
6 106 15 16 8 54 15 87 15 33 0 59 4 59 10 0 6 27 10 60 10 47 0 60 3 60 15 0
12 13 15 60 15 33 0 60 4 60 9 0 8 25 13 148 28 24 3 46 11 49 19 3 8 19 14
39 14 19 0 34 5 34 10 0 6 23 10 50 10 38 0 50 4 50 15 0 10 11 15 35 15 19 0
35 5 35 10 0 6 16 10 35 10 24 0 35 5 35 15 0 10 10 15 29 15 17 0 33 5 36 10
3 6 19 10 36 10 19 0 29 5 29 15 0 10 11 15 35 15 19 0 35 5 35 10 0 6 11 10
25 10 14 0 25 5 25 10 0 6 16 10 35 10 21 0 35 5 35 13 0 6 20 20 43 30 23 10
65 30 92 43 28 13 56 24 63 24 6 0 12 5 12 10 0 6 14 10 30 10 17 0 30 5 30
10 0 6 11 10 25 10 14 0 25 6 25 13 0 7 16 19 35 27 19 8 35 17 35 22 0 4 11
8 25 8 16 0 25 6 25 15 0 9 9 15 25 15 14 0 25 6 25 13 0 7 16 19 35 27 19 8
35 17 35 22 0 4 11 8 25 8 16 0 25 6 25 15 0 9 9 15 23 15 12 0 29 9 37 20 8
11 25 20 37 20 14 0 23 6 23 15 0 8 7 15 15 15 8 0 15 5 15 10 0 6 8 10 19 10
10 0 27 11 37 25 10 14 29 25 41 25 14 0 23 6 23 15 0 8 5 15 10 15 6 0 10 7
10 15 0 8 9 15 20 15 11 0 20 5 20 11 0 5 5 7 11 4 11 -7 69 48 69 65 0 5 11
10 25 10 14 0 25 5 25 10 0 6 7 10 15 10 8 0 15 5 15 11 0 14 25 39 39 39 6 0
11 5 11 11 0 14 25 39 39 39 6 0 11 5 11 10 0 6 9 10 20 10 11 0 20 7 20 15 0
8 5 15 11 15 14 0 39 25 39 39 0 6 5 11 11 11 13 0 39 25 39 37 0 5 16 15 35
23 22 9 35 20 35 32 0 10 5 18 10 18 6 0 10 7 10 15 0 8 7 15 15 15 8 0 15 7
15 15 0 8 5 15 11 15 14 0 39 25 39 39 0 6 5 11 11 11 14 0 39 25 39 39 0 6 7
11 15 11 8 0 15 6 15 14 0 7 9 16 20 19 11 3 20 12 20 21 0 9 5 16 11 16 19 0
39 28 39 54 0 19 5 26 19 26 11 0 23 9 26 20 3 11 13 20 21 20 8 0 14 5 14 11
0 14 25 39 39 39 6 0 11 10 11 23 0 12 9 29 20 37 11 8 20 22 20 32 0 10 5 18
10 18 6 0 10 6 10 13 0 14 35 47 50 47 6 0 10 9 10 21 0 22 22 49 40 49 7 0
10 8 7 19 -5 21 40 81 61 81 7 0 12 11 12 25 0 14 5 25 10 25 6 0 10 11 10 25
0 14 5 25 11 25 17 0 39 27 39 49 0 12 6 21 15 21 9 0 15 9 15 25 0 14 5 25
10 25 6 0 10 11 10 25 0 16 6 25 16 25 10 0 14 6 10 15 -9 24 40 105 63 105 6
0 11 16 11 35 0 19 5 35 10 35 6 0 10 11 10 25 0 16 6 25 16 25 11 0 15 8 13
28 -4 31 26 102 42 102 6 0 9 12 8 28 -2 29 20 92 33 92 4 0 8 16 8 35 0 24 5
35 15 35 9 0 15 9 15 25 0 14 5 25 10 25 6 0 10 23 10 50 0 36 4 50 14 50 9 0
16 15 20 43 15 112 19 127 32 127 10 0 14 15 14 60 0 33 4 60 10 60 6 0 10 26
10 59 0 40 5 63 15 71 10 9 15 32 15 76 0 36 4 64 10 64 6 0 10 40 10 99 0 56
4 103 10 106 6 4 10 130 10 345 0 215 -4 341 -10 345 -6 3 -10 48 -10 101 0
56 -4 94 -10 94 -6 0 -10 32 -10 75 0 60 -3 75 -15 75 -12 0 -15 13 -15 60 0
33 -4 60 -10 60 -5 0 -10 23 -10 50 0 36 -4 50 -14 50 -9 0 -16 17 -20 50 -3
28 -9 73 -12 100 -4 33 -11 50 -20 50 -9 0 -14 12 -14 35 0 19 -4 35 -10 35
-5 0 -10 16 -10 35 0 24 -5 35 -15 35 -10 0 -15 11 -15 35 0 19 -4 35 -10 35
-5 0 -10 18 -10 40 0 22 -4 40 -10 40 -5 0 -10 11 -10 25 0 16 -6 25 -15 25
-9 0 -15 9 -15 25 0 14 -4 25 -10 25 -5 0 -10 16 -10 35 0 24 -5 35 -15 35 -9
0 -15 9 -15 25 0 14 -4 25 -10 25 -5 0 -10 11 -10 25 0 16 -6 25 -15 25 -8 0
-15 8 -15 18 0 22 -22 72 -32 72 -5 0 -8 11 -8 25 0 16 -6 25 -15 25 -9 0 -15
9 -15 25 0 14 -4 25 -10 25 -5 0 -10 11 -10 25 0 14 -5 25 -11 25 -17 0 -39
27 -39 49 0 12 -6 21 -15 21 -9 0 -15 9 -15 25 0 14 -4 25 -10 25 -5 0 -10 7
-10 15 0 8 -7 15 -15 15 -9 0 -15 9 -15 25 0 14 -5 25 -11 25 -20 0 -38 27
-32 49 3 13 1 21 -7 21 -18 0 -40 27 -40 49 0 12 -6 21 -15 21 -8 0 -15 7 -15
15 0 8 -4 15 -10 15 -5 0 -10 9 -10 20 0 11 -7 20 -15 20 -8 0 -15 5 -15 11 0
12 -25 39 -37 39 -8 0 -33 47 -33 63 0 12 -26 37 -39 37 -6 0 -11 7 -11 15 0
8 -4 15 -10 15 -17 0 -60 50 -60 70 0 11 -7 20 -15 20 -8 0 -15 5 -15 10 0 14
-146 160 -160 160 -5 0 -10 5 -10 11 0 14 -25 39 -39 39 -6 0 -11 5 -11 11 0
11 -25 39 -35 39 -8 0 -35 27 -35 35 0 10 -28 35 -39 35 -6 0 -11 5 -11 11 0
12 -25 39 -35 39 -4 0 -16 11 -27 25 -11 14 -28 25 -39 25 -10 0 -19 5 -19 11
0 14 -25 39 -39 39 -6 0 -11 5 -11 11 0 14 -26 39 -41 39 -9 0 -9 3 0 14 9 11
9 16 0 22 -7 4 -15 2 -17 -4 -5 -16 -42 -15 -42 1 0 7 -9 19 -20 27 -11 8 -20
20 -20 27 0 7 -11 13 -25 13 -14 0 -25 5 -25 10 0 6 -7 10 -15 10 -8 0 -15 7
-15 15 0 11 -7 14 -24 9 -18 -4 -25 -1 -29 15 -3 12 -13 24 -24 27 -36 12 -65
28 -54 32 6 2 11 15 11 28 0 19 -5 24 -25 24 -16 0 -25 -6 -25 -15 0 -8 -4
-15 -10 -15 -5 0 -10 7 -10 15 0 8 -7 15 -15 15 -8 0 -15 4 -15 8 0 5 -16 14
-35 22 -19 8 -35 20 -35 27 0 7 -11 13 -25 13 -16 0 -25 6 -25 15 0 9 -9 15
-23 15 -12 0 -29 9 -37 20 -8 11 -25 20 -37 20 -14 0 -23 6 -23 15 0 9 -9 15
-25 15 -14 0 -25 5 -25 10 0 6 -11 10 -25 10 -16 0 -25 6 -25 16 0 11 -5 14
-16 10 -9 -3 -29 5 -48 19 -18 14 -38 25 -44 25 -14 0 -76 33 -80 43 -2 4 -15
7 -28 7 -15 0 -24 6 -24 15 0 9 -9 15 -25 15 -14 0 -25 5 -25 10 0 6 -12 10
-26 10 -20 0 -24 4 -19 19 5 17 2 19 -35 14 -26 -4 -40 -2 -40 6 0 6 -11 11
-25 11 -16 0 -25 6 -25 15 0 10 -11 15 -35 15 -19 0 -35 5 -35 10 0 6 -18 10
-40 10 -29 0 -40 4 -40 15 0 9 -9 15 -25 15 -14 0 -25 5 -25 10 0 6 -16 10
-35 10 -19 0 -35 5 -35 10 0 6 -22 10 -50 10 -38 0 -50 4 -50 15 0 11 -11 15
-40 15 -22 0 -40 5 -40 10 0 6 -13 10 -29 10 -16 0 -42 7 -57 15 -16 8 -46 15
-66 15 -21 0 -38 5 -38 10 0 6 -20 10 -45 10 -33 0 -45 4 -45 15 0 11 -12 15
-50 15 -27 0 -50 5 -50 10 0 6 -26 10 -59 10 -43 0 -60 4 -65 15 -4 12 -24 15
-86 15 -44 0 -80 4 -80 9 0 11 -117 19 -375 27 -110 3 -174 9 -184 17 -11 9
-798 13 -3483 15 -3084 2 -3468 0 -3468 -13z m6650 -2535 c0 -6 32 -10 75 -10
60 0 75 -3 75 -15 0 -12 13 -15 60 -15 33 0 60 -4 60 -10 0 -5 15 -10 34 -10
21 0 36 -6 40 -15 3 -9 18 -15 37 -15 39 0 109 -20 109 -32 0 -4 10 -8 22 -8
26 0 98 -31 98 -42 0 -4 11 -8 25 -8 14 0 25 -6 25 -13 0 -13 53 -37 83 -37 9
0 17 -5 17 -11 0 -17 27 -39 49 -39 12 0 21 -3 21 -8 0 -4 18 -15 40 -25 22
-9 40 -21 40 -27 0 -5 6 -10 14 -10 7 0 16 -10 19 -22 5 -18 8 -19 21 -8 13
10 16 10 16 -4 0 -9 5 -16 10 -16 6 0 10 -7 10 -15 0 -8 5 -15 11 -15 14 0 39
-25 39 -39 0 -6 6 -11 13 -11 7 0 19 -9 27 -20 8 -11 20 -20 27 -20 7 0 13 -7
13 -15 0 -8 5 -15 10 -15 14 0 60 -46 60 -60 0 -5 5 -10 10 -10 6 0 10 -7 10
-15 0 -8 5 -15 10 -15 6 0 24 -13 40 -30 16 -16 24 -30 18 -30 -7 0 -6 -5 2
-15 7 -8 18 -15 25 -15 7 0 16 -15 19 -34 4 -19 17 -42 31 -52 14 -10 25 -29
25 -41 0 -14 6 -23 15 -23 9 0 15 -9 15 -25 0 -14 5 -25 10 -25 6 0 10 -11 10
-25 0 -16 6 -25 15 -25 9 0 15 -9 15 -25 0 -14 5 -25 10 -25 6 0 10 -11 10
-25 0 -16 6 -25 15 -25 10 0 15 -11 15 -35 0 -19 5 -35 10 -35 6 0 10 -16 10
-35 0 -19 5 -35 10 -35 6 0 10 -22 10 -50 0 -38 4 -50 15 -50 12 0 15 -15 15
-75 0 -43 4 -75 10 -75 6 0 10 -58 10 -155 0 -97 -4 -155 -10 -155 -6 0 -10
-32 -10 -75 0 -60 -3 -75 -15 -75 -11 0 -15 -12 -15 -50 0 -27 -4 -50 -10 -50
-5 0 -10 -15 -10 -34 0 -19 -4 -38 -10 -41 -5 -3 -10 -19 -10 -36 0 -19 -5
-29 -15 -29 -9 0 -15 -9 -15 -25 0 -14 -4 -25 -10 -25 -5 0 -10 -15 -10 -34 0
-22 -6 -36 -16 -40 -9 -3 -14 -12 -11 -20 7 -18 -20 -56 -39 -56 -8 0 -14 -10
-14 -25 0 -14 -4 -25 -10 -25 -5 0 -10 -11 -10 -25 0 -16 -6 -25 -15 -25 -8 0
-15 -4 -15 -10 0 -5 -16 -10 -35 -10 -31 0 -35 -3 -35 -25 0 -16 6 -25 15 -25
8 0 15 -4 15 -10 0 -5 -7 -10 -15 -10 -8 0 -15 -5 -15 -11 0 -14 -25 -39 -39
-39 -6 0 -11 -5 -11 -11 0 -13 -25 -39 -38 -39 -5 0 -15 -11 -22 -25 -8 -14
-20 -23 -27 -21 -9 4 -11 -3 -6 -24 4 -22 2 -30 -8 -30 -8 0 -26 -11 -41 -25
-15 -14 -32 -25 -38 -25 -5 0 -10 -4 -10 -10 0 -5 -7 -10 -15 -10 -8 0 -15 -6
-15 -14 0 -7 -15 -20 -32 -27 -36 -14 -58 -32 -58 -47 0 -19 -36 -41 -58 -35
-16 4 -22 1 -22 -10 0 -18 -38 -43 -57 -39 -7 2 -13 -4 -13 -13 0 -8 -9 -15
-19 -15 -11 0 -23 -4 -26 -10 -3 -5 -17 -10 -31 -10 -15 0 -24 -6 -24 -15 0
-9 -9 -15 -25 -15 -14 0 -25 -4 -25 -10 0 -5 -11 -10 -25 -10 -14 0 -25 -4
-25 -10 0 -5 -16 -10 -35 -10 -24 0 -35 -5 -35 -15 0 -9 -9 -15 -25 -15 -14 0
-25 -4 -25 -10 0 -5 -16 -10 -35 -10 -24 0 -35 -5 -35 -15 0 -11 -12 -15 -50
-15 -27 0 -50 -4 -50 -10 0 -5 -22 -10 -50 -10 -38 0 -50 -4 -50 -15 0 -12
-16 -15 -80 -15 -47 0 -80 -4 -80 -10 0 -6 -72 -10 -195 -10 -215 0 -213 0
-245 65 -8 17 -30 45 -47 62 -18 18 -33 39 -33 48 0 8 -4 15 -10 15 -5 0 -10
11 -10 25 0 14 5 25 10 25 6 0 10 11 10 25 0 20 -5 25 -24 25 -13 0 -26 -6
-29 -12 -2 -8 -8 -9 -13 -4 -5 5 -4 11 4 13 6 3 12 16 12 29 0 21 -5 24 -35
24 -24 0 -35 5 -35 15 0 8 -5 15 -11 15 -16 0 -39 26 -39 45 0 18 -23 45 -38
45 -10 0 -32 44 -32 65 0 8 -7 15 -15 15 -8 0 -15 8 -15 18 -1 18 -23 52 -34
52 -15 0 -36 29 -36 49 0 12 -5 21 -11 21 -14 0 -39 25 -39 39 0 6 -4 11 -10
11 -5 0 -10 11 -10 25 0 15 -6 25 -15 25 -16 0 -41 38 -37 58 2 6 -4 12 -13
12 -8 0 -15 7 -15 15 0 8 -6 15 -13 15 -7 0 -19 16 -27 35 -8 19 -17 35 -22
35 -4 0 -8 7 -8 15 0 8 -4 15 -10 15 -5 0 -10 9 -10 20 0 11 -7 20 -15 20 -8
0 -15 5 -15 11 0 6 -7 17 -16 26 -8 9 -13 22 -10 29 3 8 0 11 -10 7 -8 -3 -14
1 -14 11 0 9 -4 16 -10 16 -5 0 -10 7 -10 15 0 8 -7 15 -15 15 -8 0 -15 9 -15
20 0 11 -4 20 -10 20 -5 0 -10 5 -10 11 0 14 -25 39 -39 39 -6 0 -11 11 -11
25 0 14 -4 25 -10 25 -5 0 -10 7 -10 15 0 8 -7 15 -15 15 -9 0 -15 9 -15 21 0
22 -22 49 -39 49 -6 0 -11 9 -11 21 0 20 -21 49 -37 49 -8 0 -33 47 -33 63 0
12 -26 37 -39 37 -6 0 -11 9 -11 21 0 22 -22 49 -39 49 -6 0 -11 11 -11 25 0
14 -4 25 -10 25 -5 0 -10 7 -10 15 0 8 -5 15 -11 15 -17 0 -39 27 -39 49 0 12
-5 21 -11 21 -6 0 -18 7 -27 17 -23 22 -43 63 -31 63 5 0 9 7 9 15 0 18 -30
20 -30 3 -1 -7 -8 1 -17 17 -10 17 -16 36 -15 43 2 6 -4 12 -13 12 -8 0 -15 6
-15 14 0 8 -11 17 -25 20 -19 5 -25 13 -25 34 0 16 -8 34 -20 42 -11 8 -20 25
-20 37 0 14 -6 23 -15 23 -8 0 -15 7 -15 15 0 8 -4 15 -10 15 -5 0 -10 9 -10
20 0 11 -7 20 -15 20 -8 0 -15 5 -15 11 0 14 -25 39 -39 39 -6 0 -11 11 -11
25 0 14 -4 25 -10 25 -5 0 -10 7 -10 15 0 8 -7 15 -15 15 -9 0 -15 9 -15 25 0
15 -6 25 -14 25 -7 0 -16 9 -19 20 -3 11 -12 20 -21 20 -10 0 -16 9 -16 25 0
14 -4 25 -10 25 -5 0 -10 7 -10 15 0 8 -7 15 -15 15 -9 0 -15 9 -15 21 0 19
-21 49 -35 49 -13 0 -35 29 -35 46 0 9 -11 27 -25 40 -14 13 -25 30 -25 39 0
19 -23 45 -39 45 -6 0 -11 7 -11 15 0 8 -4 15 -10 15 -5 0 -10 9 -10 20 0 11
-7 20 -15 20 -8 0 -15 5 -15 11 0 14 -25 39 -39 39 -14 0 -14 27 -1 35 15 9
12 35 -4 35 -8 0 -17 -6 -19 -12 -4 -8 -8 -4 -12 10 -4 12 -11 22 -16 22 -5 0
-9 5 -9 11 0 6 -7 17 -15 26 -9 8 -19 28 -22 44 -3 16 -10 29 -15 29 -17 0
-38 28 -38 49 0 12 -6 21 -15 21 -8 0 -15 6 -15 13 0 7 -9 19 -20 27 -11 8
-20 22 -20 31 0 9 -11 25 -25 35 -30 22 -33 44 -6 44 11 0 23 5 26 10 4 7 458
10 1331 10 876 0 1324 -3 1324 -10z"/>
<path d="M9207 17773 c-4 -3 -7 -12 -7 -20 0 -15 26 -18 34 -4 7 11 -18 33
-27 24z"/>
<path d="M9592 17173 c5 -25 28 -28 28 -4 0 12 -6 21 -16 21 -9 0 -14 -7 -12
-17z"/>
<path d="M12667 16134 c-8 -8 1 -24 14 -24 5 0 9 7 9 15 0 15 -12 20 -23 9z"/>
<path d="M15102 19488 c6 -18 28 -21 28 -4 0 9 -7 16 -16 16 -9 0 -14 -5 -12
-12z"/>
<path d="M20647 19323 c-4 -3 -7 -27 -7 -52 0 -25 -3 -63 -6 -83 -6 -32 -11
-38 -30 -38 -16 0 -24 -6 -24 -18 0 -18 -93 -112 -111 -112 -5 0 -9 -4 -9 -10
0 -5 -7 -10 -15 -10 -9 0 -15 -9 -15 -25 0 -14 -8 -29 -20 -35 -11 -6 -20 -18
-20 -26 0 -10 -6 -14 -14 -11 -14 5 -36 -19 -61 -68 -6 -11 -23 -26 -37 -33
-15 -7 -30 -21 -33 -32 -5 -15 -12 -19 -29 -14 -18 4 -25 1 -29 -15 -4 -16
-13 -21 -41 -21 -36 0 -49 -16 -21 -26 12 -5 13 -10 4 -20 -6 -8 -18 -14 -25
-14 -8 0 -14 -7 -14 -15 0 -28 -22 -60 -57 -83 -26 -17 -32 -27 -24 -35 13
-13 -13 -47 -36 -47 -7 0 -13 -4 -13 -10 0 -5 -12 -10 -27 -10 -32 0 -59 -40
-40 -59 8 -8 7 -11 -2 -11 -15 0 -35 -19 -43 -40 -5 -15 -33 -32 -70 -44 -10
-3 -18 -14 -18 -25 0 -13 -8 -21 -22 -23 -13 -2 -23 -10 -23 -18 0 -18 -30
-50 -47 -50 -7 -1 -23 -23 -36 -50 -15 -31 -30 -50 -41 -50 -17 0 -51 -33 -51
-50 0 -6 -15 -20 -34 -31 -19 -11 -37 -31 -41 -46 -3 -14 -22 -39 -41 -56 -18
-17 -34 -37 -34 -44 0 -7 -5 -13 -11 -13 -6 0 -17 -6 -25 -14 -8 -8 -14 -19
-14 -25 0 -6 -6 -11 -13 -11 -7 0 -19 -9 -27 -20 -8 -11 -20 -20 -27 -20 -7 0
-13 -5 -13 -10 0 -16 -59 -70 -75 -70 -8 0 -15 -8 -15 -17 -1 -22 -23 -53 -39
-53 -6 0 -11 -4 -11 -10 0 -5 -11 -10 -25 -10 -21 0 -25 -5 -25 -27 0 -21 -9
-34 -35 -50 -19 -13 -42 -23 -50 -23 -9 0 -15 -9 -15 -25 0 -14 -4 -25 -10
-25 -5 0 -10 -7 -10 -15 0 -8 -6 -15 -14 -15 -7 0 -16 -9 -19 -20 -3 -12 -14
-20 -26 -20 -14 0 -21 -6 -21 -18 0 -10 -17 -35 -38 -55 -31 -30 -40 -35 -51
-25 -11 11 -12 9 -7 -9 10 -33 -20 -73 -54 -73 -28 0 -40 -15 -40 -51 0 -10
-7 -19 -15 -19 -8 0 -15 -6 -15 -12 0 -7 -18 -22 -40 -32 -22 -10 -43 -28 -46
-40 -18 -56 -109 -136 -156 -136 -14 0 -18 -8 -18 -35 0 -24 -5 -35 -15 -35
-8 0 -15 -7 -15 -15 0 -8 -6 -15 -13 -15 -15 0 -36 -23 -63 -68 -15 -26 -25
-32 -51 -32 -28 0 -33 -4 -33 -23 0 -31 -35 -82 -71 -103 -20 -11 -159 -169
-182 -206 -10 -16 -24 -28 -32 -28 -8 0 -15 -5 -15 -11 0 -11 -25 -39 -35 -39
-13 0 -40 -34 -51 -63 -7 -21 -22 -35 -50 -46 -54 -22 -104 -73 -104 -105 0
-16 -6 -26 -15 -26 -8 0 -15 -7 -15 -15 0 -10 -10 -15 -34 -15 -37 0 -55 -15
-38 -32 13 -13 4 -38 -13 -38 -7 0 -18 -7 -25 -15 -7 -8 -21 -15 -31 -15 -12
0 -21 -9 -24 -27 -10 -44 -20 -58 -49 -61 -19 -3 -26 -9 -26 -26 0 -27 -18
-46 -42 -46 -10 0 -21 -6 -24 -14 -3 -8 -16 -17 -30 -20 -24 -6 -32 -30 -14
-41 15 -9 12 -25 -5 -25 -8 0 -15 -7 -15 -15 0 -8 -12 -22 -27 -32 -16 -10
-30 -20 -33 -23 -3 -3 -22 -19 -42 -34 -21 -16 -38 -36 -38 -46 0 -19 -45 -69
-64 -71 -6 -1 -17 -1 -23 0 -7 1 -13 -5 -13 -14 0 -8 -8 -15 -18 -15 -29 0
-65 -44 -57 -69 5 -15 2 -21 -9 -21 -9 0 -16 -8 -16 -18 0 -24 -44 -62 -71
-62 -21 0 -50 -23 -48 -37 3 -19 -2 -33 -12 -33 -7 0 -9 11 -6 29 8 36 2 41
-28 27 -27 -12 -34 -50 -12 -60 10 -5 10 -7 0 -12 -7 -3 -13 -16 -13 -28 0
-48 -22 -74 -68 -80 -42 -6 -72 -24 -72 -45 0 -5 -11 -23 -25 -39 -14 -17 -28
-43 -31 -60 -6 -28 -22 -42 -67 -56 -9 -3 -20 -14 -24 -23 -10 -29 -45 -63
-65 -63 -10 0 -18 -7 -18 -15 0 -8 -4 -15 -10 -15 -5 0 -10 -11 -10 -23 0 -31
-29 -57 -63 -57 -15 0 -27 -4 -27 -10 0 -5 -6 -10 -13 -10 -21 0 -67 -54 -67
-78 0 -12 -4 -22 -10 -22 -5 0 -10 -8 -10 -17 -1 -29 -25 -53 -54 -53 -14 0
-26 -4 -26 -10 0 -5 -7 -10 -16 -10 -12 0 -15 -6 -10 -25 8 -33 -10 -52 -46
-47 -21 3 -28 0 -28 -12 0 -9 -4 -16 -10 -16 -5 0 -10 -15 -10 -34 0 -27 -5
-36 -22 -41 -43 -13 -78 -30 -78 -39 0 -5 -16 -26 -35 -47 -19 -22 -35 -48
-35 -59 0 -11 -7 -20 -15 -20 -8 0 -15 -6 -15 -13 0 -8 -11 -24 -25 -37 -13
-12 -22 -27 -19 -32 8 -13 -38 -47 -64 -48 -12 0 -25 -8 -28 -17 -17 -50 -36
-83 -50 -83 -8 0 -19 -12 -24 -26 -9 -23 -14 -25 -45 -20 -27 5 -35 4 -35 -7
0 -8 -16 -32 -35 -53 -19 -21 -35 -42 -35 -46 0 -4 -7 -8 -15 -8 -8 0 -15 -5
-15 -11 0 -14 -25 -39 -39 -39 -6 0 -11 -11 -11 -25 0 -20 -5 -25 -25 -25 -14
0 -25 -6 -25 -13 0 -7 -15 -20 -32 -28 -24 -10 -33 -21 -33 -38 0 -14 -6 -26
-13 -29 -6 -2 -12 -11 -12 -19 0 -16 -34 -52 -76 -80 -13 -8 -24 -22 -24 -29
0 -8 -4 -14 -9 -14 -5 0 -13 -9 -16 -20 -3 -11 -15 -20 -26 -20 -10 0 -19 -6
-19 -12 0 -17 -58 -50 -65 -37 -11 16 -25 10 -25 -11 0 -12 10 -24 23 -30 17
-7 18 -9 5 -9 -10 -1 -18 -8 -18 -16 0 -8 -6 -15 -12 -16 -7 0 -31 -1 -53 -2
-39 -2 -40 -3 -48 -49 -5 -27 -13 -48 -18 -48 -5 0 -9 -9 -9 -20 0 -15 -7 -20
-25 -20 -18 0 -25 -5 -25 -20 0 -13 -5 -17 -14 -14 -15 6 -36 -23 -36 -51 0
-16 -43 -65 -57 -65 -11 0 -63 -59 -63 -71 0 -5 -8 -9 -18 -9 -19 0 -94 -73
-105 -102 -3 -10 -13 -18 -21 -18 -8 0 -18 -10 -22 -22 -9 -30 -42 -58 -75
-65 -24 -4 -29 -13 -40 -65 -12 -53 -16 -60 -43 -65 -16 -4 -31 -14 -33 -25
-3 -10 -10 -18 -17 -18 -6 0 -19 -18 -29 -40 -9 -22 -23 -40 -31 -40 -7 0 -20
-7 -27 -16 -7 -9 -23 -20 -36 -25 -16 -6 -23 -17 -23 -34 0 -18 -5 -25 -20
-25 -11 0 -20 -3 -20 -8 0 -4 -18 -15 -40 -25 -22 -9 -45 -27 -50 -40 -4 -12
-14 -37 -22 -54 -7 -18 -19 -33 -25 -33 -7 0 -13 -5 -13 -11 0 -13 -25 -39
-38 -39 -5 0 -15 -11 -22 -25 -7 -14 -17 -25 -22 -25 -13 0 -38 -26 -38 -39 0
-6 -5 -11 -11 -11 -6 0 -17 -6 -25 -14 -8 -8 -14 -19 -14 -25 0 -6 -7 -11 -15
-11 -8 0 -15 -6 -15 -12 0 -7 -15 -20 -32 -29 -18 -8 -35 -25 -38 -36 -13 -51
-108 -134 -118 -104 -2 6 -15 11 -28 11 -19 0 -24 5 -24 24 0 14 -7 31 -15 40
-8 8 -15 19 -15 25 0 6 -9 26 -20 46 -11 20 -20 42 -20 50 0 8 -9 15 -19 15
-22 0 -81 55 -81 75 0 7 -7 15 -15 19 -8 3 -15 12 -15 19 0 8 -9 22 -20 32
-11 10 -20 24 -20 32 0 7 -7 13 -15 13 -8 0 -15 7 -15 15 0 8 -5 15 -11 15
-17 0 -38 32 -39 57 0 12 -20 42 -47 68 -41 41 -50 46 -77 41 -17 -4 -48 -6
-68 -6 -27 1 -38 -3 -38 -14 0 -8 -10 -24 -22 -36 -19 -17 -35 -20 -127 -20
-102 0 -191 -19 -191 -41 0 -10 -32 1 -41 13 -7 11 -39 -1 -39 -13 0 -6 -9 -5
-20 1 -29 16 -85 9 -85 -10 0 -16 -26 -22 -175 -40 -46 -6 -89 -15 -94 -20 -6
-6 -41 -10 -79 -10 -37 0 -76 -4 -86 -10 -28 -14 -1804 -16 -1809 -1 -6 18
-42 13 -42 -6 -1 -17 -1 -17 -11 -1 -13 23 -42 12 -36 -13 4 -14 0 -19 -14
-19 -10 0 -19 7 -19 15 0 10 -10 15 -26 15 -25 0 -26 -2 -20 -40 4 -25 2 -40
-4 -40 -16 0 -12 -25 9 -46 10 -11 22 -30 25 -42 4 -12 11 -22 16 -22 5 0 7
-7 4 -15 -4 -10 0 -15 12 -15 31 -1 84 -56 84 -87 0 -49 11 -72 40 -81 26 -10
60 -59 60 -89 0 -8 27 -39 60 -70 46 -43 60 -64 60 -85 0 -17 5 -28 13 -28 17
0 47 -35 71 -82 13 -26 29 -41 52 -48 27 -9 34 -17 34 -38 0 -15 11 -49 25
-76 14 -27 25 -56 25 -63 0 -8 6 -13 13 -12 28 3 36 -2 42 -31 4 -16 13 -30
21 -30 8 0 19 -11 24 -24 5 -13 14 -27 19 -31 6 -3 11 -19 11 -36 0 -22 5 -29
20 -29 13 0 20 -7 20 -20 0 -11 5 -20 11 -20 16 0 38 -31 39 -52 0 -10 5 -18
11 -18 16 0 38 -31 39 -52 0 -10 5 -18 10 -18 6 0 10 -7 10 -15 0 -8 7 -15 15
-15 8 0 15 -4 15 -10 0 -5 7 -10 15 -10 8 0 15 -6 15 -14 0 -7 11 -24 24 -38
28 -31 40 -57 37 -80 -1 -10 3 -18 9 -18 14 0 40 -25 40 -39 0 -6 4 -11 9 -11
5 0 8 -8 7 -17 0 -11 7 -19 21 -21 13 -2 20 -8 17 -16 -3 -8 2 -20 10 -29 9
-9 16 -21 16 -28 0 -6 16 -27 35 -46 19 -19 35 -43 35 -55 0 -11 11 -31 25
-44 14 -13 25 -30 25 -39 0 -8 5 -15 10 -15 6 0 10 -7 10 -15 0 -9 9 -15 23
-15 23 0 50 -32 52 -62 1 -10 13 -28 27 -40 14 -13 35 -41 46 -64 11 -22 28
-46 36 -53 9 -8 16 -22 16 -32 0 -11 10 -24 23 -30 24 -11 47 -51 47 -82 0
-24 24 -47 49 -47 12 0 21 -6 21 -15 0 -8 7 -15 15 -15 17 0 20 -25 5 -35 -6
-4 4 -26 25 -55 19 -26 35 -53 35 -59 0 -6 10 -11 23 -11 21 0 47 -36 47 -67
0 -7 5 -13 11 -13 14 0 39 -26 39 -41 0 -7 5 -28 12 -46 9 -24 18 -33 35 -33
14 0 23 -6 23 -15 0 -8 6 -15 13 -15 14 0 37 -45 37 -72 0 -10 5 -18 10 -18 6
0 15 -12 20 -26 8 -19 16 -25 29 -21 31 8 40 -6 43 -63 3 -46 6 -55 23 -58 11
-2 26 -9 34 -15 14 -12 35 -57 33 -70 -1 -4 5 -10 13 -13 8 -4 15 -12 15 -20
0 -8 7 -14 15 -14 8 0 15 -9 15 -20 0 -11 5 -20 10 -20 6 0 10 -6 10 -14 0 -8
10 -16 23 -18 14 -2 23 -11 25 -25 2 -13 8 -23 13 -23 5 0 9 -11 9 -25 0 -14
5 -25 11 -25 14 0 39 -25 39 -39 0 -6 5 -11 10 -11 6 0 10 -7 10 -17 0 -17 56
-73 73 -73 5 0 4 -7 -4 -16 -8 -10 -9 -18 -3 -22 6 -4 15 -27 20 -52 8 -40 12
-45 37 -45 19 1 29 -5 33 -20 8 -26 44 -65 61 -65 7 0 13 -8 13 -19 0 -39 45
-101 74 -101 14 0 24 -17 57 -97 8 -18 20 -33 26 -33 14 0 16 -10 13 -47 -2
-24 63 -110 90 -118 29 -9 60 -45 60 -70 0 -18 5 -25 19 -25 18 0 51 -48 51
-74 0 -12 49 -56 62 -56 6 0 7 -17 3 -42 -6 -35 -5 -40 9 -35 10 4 16 1 16 -8
0 -8 5 -15 10 -15 15 0 57 -43 106 -111 24 -32 53 -63 66 -70 13 -7 26 -16 29
-20 7 -12 59 13 59 29 0 7 13 15 29 18 17 4 32 13 35 21 5 13 9 13 22 2 19
-16 34 2 34 42 0 24 39 69 60 69 6 0 10 5 10 10 0 6 14 26 32 45 17 19 36 45
42 57 6 13 21 27 34 33 12 5 21 14 19 19 -5 14 34 56 51 56 16 0 42 24 42 40
0 6 7 13 15 17 9 3 22 18 30 34 24 44 61 80 78 73 10 -3 18 2 22 15 3 12 10
21 15 21 17 0 48 41 54 71 3 17 12 29 21 29 8 0 15 5 15 10 0 6 12 10 26 10
20 0 24 4 19 19 -5 15 -1 18 20 13 20 -3 25 0 25 17 0 12 6 21 15 21 8 0 15 7
15 15 0 8 8 19 18 24 10 5 27 27 38 48 10 21 22 40 25 43 3 3 9 13 12 23 4 11
16 21 27 24 11 3 20 9 20 14 0 4 12 14 27 21 15 7 34 27 42 43 8 17 18 32 23
33 4 2 8 10 8 18 0 8 10 14 25 14 14 0 25 5 25 10 0 6 7 10 15 10 8 0 25 11
37 25 12 14 28 25 35 25 7 0 13 11 13 25 0 42 46 104 78 105 6 0 12 5 12 10 0
6 8 10 18 10 24 0 62 36 62 60 0 10 4 21 9 25 5 3 12 18 16 33 6 27 42 52 77
52 10 0 18 5 18 10 0 6 7 10 15 10 9 0 15 9 15 21 0 26 23 49 49 49 18 0 21 6
21 38 0 29 7 45 28 65 15 15 33 27 40 27 7 0 12 5 12 10 0 6 16 10 35 10 19 0
35 5 35 11 0 14 25 39 39 39 7 0 9 14 5 40 -6 35 -4 39 10 34 11 -4 16 -1 16
10 0 9 8 16 20 16 13 0 26 12 37 35 9 19 23 35 30 35 7 0 13 6 13 13 0 7 13
18 30 24 18 7 32 21 36 37 3 14 12 26 20 26 8 0 14 7 14 15 0 8 7 15 15 15 8
0 15 4 15 9 0 5 11 12 24 15 14 3 28 15 31 26 3 11 11 20 16 20 19 0 46 40 62
92 3 9 18 22 34 30 15 7 29 22 31 33 5 26 51 75 71 75 25 1 49 24 53 50 2 19
10 26 31 28 15 2 27 9 27 16 0 7 16 18 35 26 19 8 35 20 35 27 0 7 7 13 16 13
9 0 14 6 11 13 -2 6 7 29 20 49 12 21 23 42 23 48 0 5 7 10 15 10 9 0 15 9 15
24 0 26 53 76 81 76 21 1 59 36 59 54 0 9 7 16 15 16 8 0 15 5 15 10 0 6 7 10
15 10 8 0 15 6 15 13 0 7 9 19 20 27 11 8 20 18 20 23 0 5 11 18 25 29 14 11
25 27 25 36 0 17 41 42 67 42 7 0 13 9 13 20 0 13 10 24 25 30 17 6 25 16 23
27 -2 12 4 19 20 21 12 2 22 8 22 13 0 17 44 59 62 59 10 0 18 7 18 15 0 8 5
15 10 15 6 0 10 6 10 14 0 23 27 68 35 57 3 -6 15 -11 26 -11 16 0 19 5 14 20
-5 14 -2 20 9 20 9 0 16 8 16 19 0 11 5 23 10 26 6 3 10 17 10 31 0 13 6 24
13 24 36 0 75 32 93 75 14 35 23 45 41 45 18 0 23 6 23 25 0 14 6 25 13 25 19
0 77 59 77 79 0 18 23 37 72 61 19 9 37 27 43 44 12 35 129 156 150 156 8 0
15 4 15 10 0 12 48 60 60 60 6 0 10 5 10 10 0 6 11 10 25 10 19 0 25 5 25 23
1 27 22 57 41 57 21 1 62 41 82 80 10 19 35 54 57 78 22 24 40 51 40 61 0 23
51 71 76 71 17 0 44 38 44 63 0 13 27 37 42 37 18 0 46 34 54 65 7 30 34 34
34 5 0 -13 7 -20 20 -20 16 0 20 7 20 35 0 19 5 35 11 35 19 0 39 28 39 54 0
19 5 26 19 26 10 0 21 7 25 15 6 17 46 21 46 5 0 -5 5 -10 10 -10 6 0 10 9 10
20 0 14 -7 20 -21 20 -18 0 -20 2 -9 16 8 8 20 19 29 24 15 7 16 -313 16
-3600 l0 -3607 -30 1 c-24 1 -31 -4 -33 -21 -4 -26 35 -53 48 -33 4 7 9 -28
12 -76 3 -54 9 -89 16 -92 7 -2 12 -10 12 -17 0 -7 8 -15 18 -19 9 -3 22 -9
29 -12 6 -3 14 4 18 15 l6 21 1384 0 1385 0 16 -25 c18 -28 44 -33 44 -10 0 9
9 15 25 15 20 0 25 5 25 25 0 14 5 25 10 25 6 0 10 16 10 35 0 19 5 44 12 54
9 15 9 25 0 46 -16 34 -18 14135 -2 14135 6 0 10 23 10 50 0 28 -4 50 -10 50
-5 0 -10 20 -10 45 0 38 -3 45 -20 45 -11 0 -20 -6 -20 -14 0 -13 -4 -13 -27
0 -40 20 -53 17 -53 -10 0 -13 -7 -26 -15 -30 -17 -6 -22 29 -5 39 6 4 8 11 5
16 -7 11 -29 12 -38 2z"/>
<path d="M20380 19110 c0 -15 5 -20 18 -18 9 2 17 10 17 18 0 8 -8 16 -17 18
-13 2 -18 -3 -18 -18z"/>
<path d="M20260 18976 c0 -2 7 -6 15 -10 8 -3 15 -1 15 4 0 6 -7 10 -15 10 -8
0 -15 -2 -15 -4z"/>
<path d="M18906 17554 c-8 -21 1 -34 24 -34 25 0 35 17 20 35 -16 20 -36 19
-44 -1z"/>
<path d="M18907 17493 c-2 -5 -7 -20 -11 -36 -6 -26 -5 -27 16 -15 24 14 47
38 48 51 0 4 -11 7 -24 7 -14 0 -27 -3 -29 -7z"/>
<path d="M18788 17375 c-3 -4 -3 -15 -1 -26 7 -24 28 -20 28 6 0 18 -16 30
-27 20z"/>
<path d="M7207 15814 c-8 -8 1 -24 14 -24 5 0 9 7 9 15 0 15 -12 20 -23 9z"/>
<path d="M7205 15660 c-3 -5 1 -10 9 -10 9 0 16 5 16 10 0 6 -4 10 -9 10 -6 0
-13 -4 -16 -10z"/>
<path d="M17142 15604 c-21 -14 -22 -34 -2 -34 10 0 34 39 28 46 -2 2 -14 -3
-26 -12z"/>
<path d="M16936 15421 c-4 -5 -2 -12 3 -15 5 -4 12 -2 15 3 4 5 2 12 -3 15 -5
4 -12 2 -15 -3z"/>
<path d="M9940 11880 c0 -5 5 -10 10 -10 6 0 10 5 10 10 0 6 -4 10 -10 10 -5
0 -10 -4 -10 -10z"/>
<path d="M16476 10811 c-4 -5 -2 -12 3 -15 5 -4 12 -2 15 3 4 5 2 12 -3 15 -5
4 -12 2 -15 -3z"/>
<path d="M16326 10591 c-4 -5 -2 -12 3 -15 5 -4 12 -2 15 3 4 5 2 12 -3 15 -5
4 -12 2 -15 -3z"/>
<path d="M11080 10270 c0 -5 5 -10 10 -10 6 0 10 5 10 10 0 6 -4 10 -10 10 -5
0 -10 -4 -10 -10z"/>
<path d="M12086 8842 c-4 -6 2 -20 13 -31 26 -26 35 -12 12 18 -12 15 -21 20
-25 13z"/>
<path d="M12462 8239 c-7 -12 -11 -23 -8 -27 9 -8 46 29 40 39 -8 14 -18 10
-32 -12z"/>
<path d="M13740 7850 c0 -13 5 -20 13 -17 6 2 12 10 12 17 0 7 -6 15 -12 18
-8 2 -13 -5 -13 -18z"/>
<path d="M20860 5046 c0 -8 5 -18 10 -21 6 -3 10 3 10 14 0 12 -4 21 -10 21
-5 0 -10 -6 -10 -14z"/>
</g>
</svg>
